# xmcd CD database file
#
# Track frame offsets:
#	150
#	13780
#	30695
#	44835
#	64045
#	78945
#	94550
#	111695
#	126160
#	140200
#	154215
#	172720
#
# Disc length: 2519 seconds
#
# Revision: 0
# Processed by: cddbd v1.4PL0 Copyright (c) Steve Scherf et al.
# Submitted via: CDex 1.50
#
DISCID=a409d50c
DTITLE=Wirsbo Flying Comets - Up to something
DYEAR=1900
DGENRE=Blues
TTITLE0=The happy song (Dum-dum)
TTITLE1=Love me forever
TTITLE2=The Memphis train
TTITLE3=Glory of love
TTITLE4=Stagger Lee
TTITLE5=Just keep on loving me
TTITLE6=New in town
TTITLE7=Texas bop
TTITLE8=I know you're up to something
TTITLE9=Love sickness
TTITLE10=True love
TTITLE11=The moneyhunt
EXTD=
EXTT0=
EXTT1=
EXTT2=
EXTT3=
EXTT4=
EXTT5=
EXTT6=
EXTT7=
EXTT8=
EXTT9=
EXTT10=
EXTT11=
PLAYORDER=
